<svg width="86" height="67" viewBox="0 0 86 67" fill="none" xmlns="http://www.w3.org/2000/svg">
<path d="M32.8755 63.0588H21.5C15.6364 63.0588 10.4764 61.0882 6.29364 56.8712C2.11091 52.7329 0 47.6488 0 41.6976C0 36.5741 1.52455 32.0024 4.57364 27.9824C7.54696 24.0522 11.8183 21.3257 16.6136 20.2971C18.2555 14.2671 21.5 9.38 26.3864 5.63588C31.2727 1.97059 36.8236 0 43 0C50.6227 0 57.1118 2.68 62.3891 8.04C67.7055 13.3606 70.3636 19.9029 70.3636 27.5882C74.8591 28.1006 78.6118 30.0712 81.5436 33.5C84.0455 36.3771 85.4527 39.6482 85.8436 43.3529H66.4545C64.6318 40.9078 62.2706 38.923 59.5571 37.5551C56.8436 36.1873 53.852 35.4736 50.8182 35.4706C39.8727 35.4706 31.2727 44.1412 31.2727 55.1765C31.2727 58.0141 31.8591 60.6547 32.8755 63.0588ZM86 51.2353V59.1176H78.1818V67H70.3636V59.1176H61.7636C60.2 63.8471 55.9 67 50.8182 67C44.1727 67 39.0909 61.8765 39.0909 55.1765C39.0909 48.4765 44.1727 43.3529 50.8182 43.3529C55.9 43.3529 60.2 46.5059 61.7636 51.2353H86ZM54.7273 55.1765C54.7273 53.2059 53.1636 51.2353 50.8182 51.2353C48.4727 51.2353 46.9091 53.2059 46.9091 55.1765C46.9091 57.1471 48.4727 59.1176 50.8182 59.1176C53.1636 59.1176 54.7273 57.1471 54.7273 55.1765Z" fill="url(#paint0_linear_0_103)"/>
<defs>
<linearGradient id="paint0_linear_0_103" x1="43" y1="0" x2="43" y2="67" gradientUnits="userSpaceOnUse">
<stop/>
<stop offset="0.28125" stop-color="#FF008D"/>
<stop offset="0.619792" stop-color="#0097FF"/>
<stop offset="1"/>
</linearGradient>
</defs>
</svg>
