<svg width="70" height="70" viewBox="0 0 70 70" fill="none" xmlns="http://www.w3.org/2000/svg">
<path d="M22.7858 -9.15527e-05H47.216C48.028 -9.15527e-05 48.651 -9.11844e-05 49.197 0.0524091C53.075 0.433911 56.2495 2.76492 57.597 5.90444H12.4048C13.7523 2.76492 16.9268 0.433911 20.8048 0.0524091C21.3438 -9.11844e-05 21.9668 -9.15527e-05 22.7858 -9.15527e-05ZM15.0858 9.53046C10.2207 9.53046 6.23072 12.4705 4.90071 16.3695C4.87155 16.4508 4.84354 16.5324 4.81671 16.6145C6.20972 16.1945 7.66223 15.9145 9.12874 15.729C12.9088 15.2425 17.6898 15.2425 23.2408 15.2425H47.363C52.914 15.2425 57.6915 15.2425 61.475 15.729C62.945 15.918 64.3941 16.191 65.7871 16.6145C65.7616 16.5324 65.7348 16.4507 65.7066 16.3695C64.3766 12.4705 60.3865 9.53046 55.518 9.53046H15.0858Z" fill="url(#paint0_linear_0_114)"/>
<path fill-rule="evenodd" clip-rule="evenodd" d="M23.3533 19.3969H46.6494C58.4585 19.3969 64.3665 19.3969 67.6845 22.8515C70.9991 26.306 70.2186 31.64 68.6575 42.3116L67.1805 52.4336C65.9555 60.8022 65.343 64.9882 62.2035 67.4942C59.064 70.0002 54.4335 70.0002 45.1689 70.0002H24.8338C15.5727 70.0002 10.9387 70.0002 7.7992 67.4942C4.65968 64.9882 4.04718 60.8022 2.82217 52.4336L1.34516 42.3151C-0.219349 31.64 -0.999854 26.306 2.31817 22.8515C5.63618 19.3969 11.5442 19.3969 23.3533 19.3969ZM21.0013 56.0002C21.0013 54.5511 22.3068 53.3751 23.9168 53.3751H46.0859C47.6959 53.3751 49.0014 54.5511 49.0014 56.0002C49.0014 57.4492 47.6959 58.6252 46.0859 58.6252H23.9168C22.3068 58.6252 21.0013 57.4492 21.0013 56.0002Z" fill="url(#paint1_linear_0_114)"/>
<defs>
<linearGradient id="paint0_linear_0_114" x1="35.3019" y1="-9.15527e-05" x2="35.3019" y2="16.6145" gradientUnits="userSpaceOnUse">
<stop/>
<stop offset="0.28125" stop-color="#FF008D"/>
<stop offset="0.619792" stop-color="#0097FF"/>
<stop offset="1"/>
</linearGradient>
<linearGradient id="paint1_linear_0_114" x1="35" y1="19.3969" x2="35" y2="70.0002" gradientUnits="userSpaceOnUse">
<stop/>
<stop offset="0.28125" stop-color="#FF008D"/>
<stop offset="0.619792" stop-color="#0097FF"/>
<stop offset="1"/>
</linearGradient>
</defs>
</svg>
