<svg width="78" height="78" viewBox="0 0 78 78" fill="none" xmlns="http://www.w3.org/2000/svg">
<path d="M47.4568 45.7605L52.9167 36.3036C53.2677 35.7174 53.1117 34.975 52.6047 34.5451L46.8328 30.012C46.9498 29.1523 47.0278 28.2535 47.0278 27.3547C47.0278 26.4559 46.9498 25.5571 46.8328 24.6583L52.6047 20.1253C53.1117 19.6954 53.2677 18.9529 52.9167 18.3667L47.4568 8.90982C47.1058 8.32365 46.4038 8.08918 45.7798 8.32365L38.9939 11.0591C37.5899 9.96493 36.0689 9.06613 34.3919 8.36273L33.3779 1.13327C33.3125 0.81721 33.1417 0.532854 32.8937 0.326911C32.6456 0.120967 32.335 0.00568456 32.013 0H21.0931C20.4301 0 19.8451 0.508016 19.7281 1.17234L18.7141 8.4018C17.0761 9.10521 15.5161 10.004 14.1121 11.0982L7.32622 8.36273C6.70223 8.12826 6.00024 8.36273 5.64924 8.9489L0.189298 18.4058C-0.161698 18.992 -0.00569923 19.7345 0.501295 20.1643L6.27323 24.6974C6.15623 25.5571 6.07824 26.4559 6.07824 27.3547C6.07824 28.2535 6.15623 29.1523 6.27323 30.0511L0.501295 34.5842C-0.00569923 35.014 -0.161698 35.7565 0.189298 36.3427L5.64924 45.7996C6.00024 46.3858 6.70223 46.6202 7.32622 46.3858L14.1121 43.6503C15.5161 44.7445 17.0371 45.6433 18.7141 46.3467L19.7281 53.5762C19.8451 54.2014 20.4301 54.7094 21.0931 54.7094H32.013C32.676 54.7094 33.2609 54.2014 33.3779 53.5371L34.3919 46.3076C36.0299 45.6042 37.5899 44.7054 38.9939 43.6112L45.7798 46.3467C46.4038 46.5812 47.1058 46.3467 47.4568 45.7605ZM26.553 35.1703C22.2631 35.1703 18.7531 31.6533 18.7531 27.3547C18.7531 23.0561 22.2631 19.5391 26.553 19.5391C30.843 19.5391 34.3529 23.0561 34.3529 27.3547C34.3529 31.6533 30.843 35.1703 26.553 35.1703ZM77.6815 65.1433L73.9375 62.2515C74.0155 61.7044 74.0935 61.1182 74.0935 60.5321C74.0935 59.9459 74.0545 59.3597 73.9375 58.8126L77.6425 55.9208C77.9545 55.6473 78.0715 55.1784 77.8375 54.7876L74.3275 48.7305C74.1325 48.3397 73.6645 48.2224 73.2355 48.3397L68.9066 50.0982C68.0096 49.3948 67.0346 48.8086 65.9426 48.3788L65.2796 43.7675C65.2642 43.5587 65.1718 43.363 65.0205 43.2186C64.8691 43.0741 64.6696 42.9912 64.4606 42.986H57.4797C57.0507 42.986 56.6607 43.2986 56.6217 43.7285L55.9587 48.3397C54.9057 48.8086 53.8917 49.3557 52.9947 50.0591L48.6658 48.3006C48.4671 48.2257 48.2483 48.2239 48.0483 48.2954C47.8483 48.367 47.6802 48.5073 47.5738 48.6914L44.0638 54.7485C43.8688 55.1393 43.9078 55.6082 44.2588 55.8818L47.9638 58.7736C47.803 59.9142 47.803 61.0718 47.9638 62.2124L44.2588 65.1042C43.9468 65.3778 43.8298 65.8467 44.0638 66.2375L47.5738 72.2946C47.7688 72.6854 48.2368 72.8026 48.6658 72.6854L52.9947 70.9269C53.8917 71.6303 54.8667 72.2164 55.9587 72.6463L56.6217 77.2575C56.6997 77.6874 57.0507 78 57.4797 78H64.4606C64.8896 78 65.2796 77.6874 65.3186 77.2575L65.9816 72.6463C67.0346 72.1774 68.0486 71.6303 68.9066 70.9269L73.2745 72.6854C73.6645 72.8417 74.1325 72.6854 74.3665 72.2946L77.8765 66.2375C78.1105 65.8858 77.9935 65.4168 77.6815 65.1433ZM60.9506 65.7685C59.5538 65.768 58.2143 65.2115 57.227 64.2214C56.2396 63.2313 55.6852 61.8888 55.6857 60.4891C55.6862 59.0894 56.2416 57.7472 57.2297 56.7579C58.2178 55.7685 59.5577 55.213 60.9546 55.2135C62.3514 55.214 63.6909 55.7706 64.6782 56.7607C65.6656 57.7507 66.22 59.0933 66.2195 60.493C66.219 61.8927 65.6636 63.2348 64.6755 64.2242C63.6874 65.2135 62.3475 65.7691 60.9506 65.7685Z" fill="url(#paint0_linear_0_88)"/>
<defs>
<linearGradient id="paint0_linear_0_88" x1="39" y1="0" x2="39" y2="78" gradientUnits="userSpaceOnUse">
<stop/>
<stop offset="0.28125" stop-color="#FF008D"/>
<stop offset="0.619792" stop-color="#0097FF"/>
<stop offset="1"/>
</linearGradient>
</defs>
</svg>
