<svg width="83" height="78" viewBox="0 0 83 78" fill="none" xmlns="http://www.w3.org/2000/svg">
<path d="M74.9677 0H32.129V13.4021H42.8387V18.7629H8.03226C3.48065 18.7629 0 22.2474 0 26.8041V56.2887C0 60.8454 3.48065 64.3299 8.03226 64.3299H10.7097V78L27.5774 64.3299H45.5161V45.567H74.9677C79.5194 45.567 83 42.0825 83 37.5258V8.04124C83 3.48454 79.5194 0 74.9677 0ZM28.9161 53.3402L27.5774 49.0515H19.2774L17.671 53.3402H11.2452L20.0806 29.4845H26.5065L35.3419 53.3402H28.9161ZM69.6129 32.165V37.5258C66.1323 37.5258 62.3839 36.4536 59.171 34.8454C55.9581 36.4536 52.2097 37.2577 48.4613 37.5258L48.1936 32.165C50.0677 32.165 51.9419 31.8969 53.8161 31.3608C51.4065 28.9485 49.8 26 48.9968 22.7835H54.6194C55.4226 25.1959 57.029 27.0722 58.9032 28.6804C61.8484 26.268 63.7226 22.7835 63.9903 18.7629H47.9258V13.4021H55.9581V8.04124H61.3129V13.4021H70.1484L70.4161 16.0825C70.6839 21.7113 68.5419 27.3402 64.5258 31.3608C66.4 31.8969 68.0065 32.165 69.6129 32.165Z" fill="url(#paint0_linear_0_96)"/>
<defs>
<linearGradient id="paint0_linear_0_96" x1="41.5" y1="0" x2="41.5" y2="78" gradientUnits="userSpaceOnUse">
<stop/>
<stop offset="0.28125" stop-color="#FF008D"/>
<stop offset="0.619792" stop-color="#0097FF"/>
<stop offset="1"/>
</linearGradient>
</defs>
</svg>
