<svg width="74" height="74" viewBox="0 0 74 74" fill="none" xmlns="http://www.w3.org/2000/svg">
<path d="M73.2778 0.934065C73.0178 0.648457 72.7027 0.418514 72.3514 0.258133C72.0001 0.0977525 71.6199 0.0102635 71.2338 0.000952586C70.8478 -0.00835834 70.4638 0.0607021 70.1052 0.203961C69.7466 0.347221 69.4207 0.561704 69.1473 0.83445L66.9469 3.0242C66.6802 3.29105 66.5304 3.65288 66.5304 4.03014C66.5304 4.4074 66.6802 4.76922 66.9469 5.03607L68.9641 7.04972C69.0963 7.18256 69.2535 7.28798 69.4266 7.35991C69.5997 7.43184 69.7852 7.46887 69.9727 7.46887C70.1601 7.46887 70.3457 7.43184 70.5188 7.35991C70.6919 7.28798 70.8491 7.18256 70.9813 7.04972L73.1266 4.91511C74.2117 3.8318 74.3131 2.06719 73.2778 0.934065ZM62.498 7.4713L30.3864 39.526C30.1917 39.7199 30.0502 39.9607 29.9755 40.2251L28.4901 44.6491C28.4545 44.7691 28.452 44.8965 28.4828 45.0179C28.5136 45.1392 28.5766 45.25 28.6652 45.3385C28.7537 45.4271 28.8645 45.4901 28.9858 45.5209C29.1072 45.5517 29.2346 45.5492 29.3546 45.5136L33.7751 44.0283C34.0395 43.9535 34.2802 43.812 34.4741 43.6173L66.5289 11.5022C66.8254 11.2024 66.9918 10.7978 66.9918 10.3762C66.9918 9.9545 66.8254 9.54988 66.5289 9.25014L64.7589 7.4713C64.4588 7.17204 64.0523 7.00399 63.6285 7.00399C63.2046 7.00399 62.7981 7.17204 62.498 7.4713Z" fill="url(#paint0_linear_0_108)"/>
<path d="M60.1853 25.9107L38.503 47.6357C37.665 48.4758 36.635 49.0991 35.5021 49.4519L30.8949 50.9941C29.8015 51.3029 28.6455 51.3146 27.5461 51.0279C26.4467 50.7412 25.4437 50.1666 24.6403 49.3632C23.8369 48.5598 23.2622 47.5567 22.9756 46.4573C22.6889 45.3579 22.7005 44.2019 23.0093 43.1085L24.5516 38.5013C24.9033 37.3688 25.5254 36.3388 26.3642 35.5004L48.0892 13.8146C48.2883 13.6157 48.424 13.3622 48.479 13.0861C48.5341 12.8101 48.5061 12.524 48.3985 12.2639C48.2909 12.0038 48.1086 11.7814 47.8747 11.6249C47.6407 11.4684 47.3656 11.3848 47.0841 11.3847H9.96151C7.31955 11.3847 4.7858 12.4342 2.91766 14.3024C1.04951 16.1705 0 18.7043 0 21.3462V64.0384C0 66.6803 1.04951 69.2141 2.91766 71.0822C4.7858 72.9504 7.31955 73.9999 9.96151 73.9999H52.6537C55.2956 73.9999 57.8294 72.9504 59.6975 71.0822C61.5657 69.2141 62.6152 66.6803 62.6152 64.0384V26.9158C62.6151 26.6343 62.5315 26.3592 62.375 26.1252C62.2185 25.8913 61.9961 25.709 61.736 25.6014C61.4759 25.4938 61.1898 25.4658 60.9137 25.5208C60.6377 25.5759 60.3842 25.7116 60.1853 25.9107Z" fill="url(#paint1_linear_0_108)"/>
<defs>
<linearGradient id="paint0_linear_0_108" x1="51.2308" y1="0.00012207" x2="51.2308" y2="45.5423" gradientUnits="userSpaceOnUse">
<stop/>
<stop offset="0.28125" stop-color="#FF008D"/>
<stop offset="0.619792" stop-color="#0097FF"/>
<stop offset="1"/>
</linearGradient>
<linearGradient id="paint1_linear_0_108" x1="31.3076" y1="11.3847" x2="31.3076" y2="73.9999" gradientUnits="userSpaceOnUse">
<stop/>
<stop offset="0.28125" stop-color="#FF008D"/>
<stop offset="0.619792" stop-color="#0097FF"/>
<stop offset="1"/>
</linearGradient>
</defs>
</svg>
