<svg width="72" height="66" viewBox="0 0 72 66" fill="none" xmlns="http://www.w3.org/2000/svg">
<path d="M60.192 43.0318C61.452 39.9427 62.136 36.6356 62.136 33.0014C62.136 30.3847 61.74 27.8771 61.056 25.5512C58.716 26.0964 56.268 26.3871 53.712 26.3871C48.4775 26.3928 43.3184 25.1279 38.6695 22.6992C34.0207 20.2705 30.0184 16.749 27 12.4317C23.7711 20.3186 17.68 26.6626 9.972 30.1667C9.828 31.0752 9.828 32.0565 9.828 33.0014C9.828 36.471 10.505 39.9066 11.8202 43.1121C13.1355 46.3176 15.0633 49.2302 17.4936 51.6836C22.4018 56.6385 29.0588 59.4221 36 59.4221C39.78 59.4221 43.416 58.5862 46.692 57.0962C48.744 61.0575 49.68 63.0199 49.608 63.0199C43.704 65.0188 39.132 66 36 66C27.288 66 18.972 62.5475 12.852 56.333C9.12959 52.5868 6.36253 47.9852 4.788 42.9228H0V26.3871H3.924C5.11287 20.5452 7.84617 15.1371 11.8339 10.7367C15.8216 6.33635 20.9149 3.10785 26.5735 1.39378C32.2321 -0.320295 38.2447 -0.455988 43.9735 1.00109C49.7023 2.45817 54.9335 5.45368 59.112 9.66975C63.6488 14.2316 66.7433 20.0494 68.004 26.3871H72V42.9228H71.784L58.968 54.8066L39.888 52.6261V46.557H57.276L60.192 43.0318ZM26.172 32.1655C27.252 32.1655 28.296 32.6016 29.052 33.4011C29.8118 34.1744 30.2381 35.2194 30.2381 36.3085C30.2381 37.3976 29.8118 38.4426 29.052 39.2159C28.296 39.9791 27.252 40.4152 26.172 40.4152C23.904 40.4152 22.068 38.5981 22.068 36.3085C22.068 34.019 23.904 32.1655 26.172 32.1655ZM45.792 32.1655C48.06 32.1655 49.86 34.019 49.86 36.3085C49.86 38.5981 48.06 40.4152 45.792 40.4152C43.524 40.4152 41.688 38.5981 41.688 36.3085C41.688 35.2097 42.1204 34.1559 42.89 33.379C43.6597 32.602 44.7036 32.1655 45.792 32.1655Z" fill="url(#paint0_linear_0_100)"/>
<defs>
<linearGradient id="paint0_linear_0_100" x1="36" y1="0" x2="36" y2="66" gradientUnits="userSpaceOnUse">
<stop/>
<stop offset="0.28125" stop-color="#FF008D"/>
<stop offset="0.619792" stop-color="#0097FF"/>
<stop offset="1"/>
</linearGradient>
</defs>
</svg>
