<svg width="92" height="92" viewBox="0 0 92 92" fill="none" xmlns="http://www.w3.org/2000/svg">
<path d="M27.6299 58.6447L22.9816 53.9965L8.57215 58.5982H8.10733C7.88081 58.6123 7.65388 58.5782 7.44154 58.498C7.2292 58.4179 7.03629 58.2936 6.87555 58.1334L3.50559 54.8099C3.23337 54.551 3.05917 54.2058 3.01257 53.833C2.96596 53.4602 3.04984 53.0827 3.24994 52.7647L7.17769 46.0015C9.6105 41.8381 13.0045 38.3175 17.0761 35.7338C21.1476 33.1502 25.7784 31.5786 30.5815 31.1505L36.3685 30.6392M36.3685 30.6392C39.7307 26.6417 42.8295 23.2175 45.665 20.3666C51.0449 14.668 57.4667 10.0528 64.5832 6.77056C71.8369 4.05919 79.5496 2.7882 87.2898 3.02875C87.758 3.03291 88.2069 3.21581 88.5448 3.54005C88.7057 3.68787 88.8342 3.86746 88.9223 4.06748C89.0103 4.26749 89.0558 4.48358 89.0561 4.7021C89.2147 12.4654 87.8323 20.1831 84.9889 27.4087C81.7913 34.5461 77.2277 40.9888 71.5555 46.3734C68.6969 49.2553 65.2572 52.3464 61.283 55.6698L60.7717 61.4336C60.3546 66.2343 58.7953 70.8656 56.224 74.9409C53.6526 79.0163 50.1438 82.4175 45.9903 84.8607L39.2736 88.7884C39.0087 88.9281 38.7132 89 38.4137 88.9976C37.969 88.9884 37.5414 88.824 37.2052 88.5328L33.8352 85.1396C33.6176 84.9315 33.463 84.6664 33.389 84.3746C33.315 84.0828 33.3247 83.776 33.4169 83.4894L37.9024 68.9173M36.3685 30.6392L23.0978 54.1127M37.9024 68.9173L33.3936 64.4085M37.9024 68.9173L61.3759 55.6698M77.1799 24.3873C77.1861 21.8641 76.1912 19.4415 74.4136 17.6508C72.636 15.8601 70.2207 14.8475 67.6975 14.8352C66.405 14.7714 65.1131 14.9709 63.9 15.4215C62.6869 15.8722 61.5781 16.5646 60.6408 17.4568C59.7034 18.349 58.9572 19.4224 58.4473 20.6117C57.9373 21.8011 57.6744 23.0816 57.6744 24.3757C57.6744 25.6698 57.9373 26.9503 58.4473 28.1397C58.9572 29.329 59.7034 30.4024 60.6408 31.2946C61.5781 32.1868 62.6869 32.8792 63.9 33.3299C65.1131 33.7805 66.405 33.98 67.6975 33.9162C70.2029 33.9198 72.6084 32.9342 74.391 31.1737C75.2877 30.2889 75.9953 29.2311 76.4707 28.0645C76.9461 26.8979 77.1795 25.6469 77.1566 24.3873H77.1799Z" stroke="url(#paint0_linear_0_120)" stroke-width="5" stroke-linecap="round" stroke-linejoin="round"/>
<path d="M20.4251 71.5668C29.7216 69.8469 46.2228 54.3684 48.1518 43.8401C37.5538 45.8621 22.0753 62.2703 20.4251 71.5668Z" stroke="url(#paint1_linear_0_120)" stroke-width="5" stroke-linecap="round" stroke-linejoin="round"/>
<defs>
<linearGradient id="paint0_linear_0_120" x1="46.0342" y1="3" x2="46.0342" y2="88.9976" gradientUnits="userSpaceOnUse">
<stop/>
<stop offset="0.28125" stop-color="#FF008D"/>
<stop offset="0.619792" stop-color="#0097FF"/>
<stop offset="1"/>
</linearGradient>
<linearGradient id="paint1_linear_0_120" x1="34.2885" y1="43.8401" x2="34.2885" y2="71.5668" gradientUnits="userSpaceOnUse">
<stop/>
<stop offset="0.28125" stop-color="#FF008D"/>
<stop offset="0.619792" stop-color="#0097FF"/>
<stop offset="1"/>
</linearGradient>
</defs>
</svg>
