<svg width="50" height="72" viewBox="0 0 50 72" fill="none" xmlns="http://www.w3.org/2000/svg">
<path d="M17.8571 21.6C17.8571 20.6452 18.2334 19.7295 18.9032 19.0544C19.573 18.3793 20.4814 18 21.4286 18C22.3758 18 23.2842 18.3793 23.954 19.0544C24.6237 19.7295 25 20.6452 25 21.6V37.692L29.3214 38.16L46.9643 46.044C48.8571 46.908 50 48.816 50 50.904V66.6C49.8929 69.552 47.5714 71.892 44.6429 72H21.4286C20.0714 72 18.7857 71.46 17.8571 70.452L0.357143 55.332L3 52.56C3.67857 51.804 4.64286 51.408 5.64286 51.408H6.42857L17.8571 57.6V21.6ZM21.4286 7.2C25.2174 7.2 28.851 8.71714 31.5301 11.4177C34.2092 14.1182 35.7143 17.7809 35.7143 21.6C35.7143 27 32.8571 31.572 28.5714 34.056V29.664C30.75 27.684 32.1429 24.804 32.1429 21.6C32.1429 18.7357 31.014 15.9886 29.0047 13.9632C26.9954 11.9379 24.2702 10.8 21.4286 10.8C18.587 10.8 15.8617 11.9379 13.8524 13.9632C11.8431 15.9886 10.7143 18.7357 10.7143 21.6C10.7143 24.804 12.1071 27.684 14.2857 29.664V34.056C10 31.572 7.14286 27 7.14286 21.6C7.14286 17.7809 8.64795 14.1182 11.327 11.4177C14.0061 8.71714 17.6398 7.2 21.4286 7.2ZM21.4286 0C27.1118 0 32.5622 2.27571 36.5809 6.32649C40.5995 10.3773 42.8571 15.8713 42.8571 21.6C42.8571 27.72 40.3214 33.228 36.2857 37.188L32.7143 35.568C34.7665 33.8748 36.4205 31.7436 37.5568 29.3282C38.6932 26.9128 39.2837 24.2733 39.2857 21.6C39.2857 16.8261 37.4043 12.2477 34.0555 8.87208C30.7066 5.49642 26.1646 3.6 21.4286 3.6C16.6926 3.6 12.1505 5.49642 8.80166 8.87208C5.4528 12.2477 3.57143 16.8261 3.57143 21.6C3.57143 28.98 7.96429 35.316 14.2857 38.088V41.976C5.96429 38.988 0 30.996 0 21.6C0 15.8713 2.25765 10.3773 6.27628 6.32649C10.2949 2.27571 15.7454 0 21.4286 0Z" fill="url(#paint0_linear_0_92)"/>
<defs>
<linearGradient id="paint0_linear_0_92" x1="25" y1="0" x2="25" y2="72" gradientUnits="userSpaceOnUse">
<stop/>
<stop offset="0.28125" stop-color="#FF008D"/>
<stop offset="0.619792" stop-color="#0097FF"/>
<stop offset="1"/>
</linearGradient>
</defs>
</svg>
